<svg width="80" height="50" fill="none" xmlns="http://www.w3.org/2000/svg"><path d="M51.024 8.471h12.901v6.553c0 2.969-1.187 5.64-3.653 8.22-1.964 2.055-4.704 3.996-8.152 5.777l-1.073-.48V8.472m-5.114-5.114v28.518l6.301 2.809c8.883-4.11 16.851-10.344 16.851-19.637V4.817c0-.821-.662-1.483-1.484-1.483H45.932v.023zM28.899 8.471v20.07l-1.073.48c-3.448-1.78-6.188-3.722-8.152-5.777-2.466-2.58-3.653-5.251-3.653-8.22V8.471h12.9m5.115-5.114H12.367c-.822 0-1.484.662-1.484 1.484v10.206c0 9.293 7.946 15.527 16.851 19.637l6.302-2.809V3.334v.023z" fill="#9D6C3E"/><path d="M52.303 34.638c-8.197-4.247-16.394-4.247-24.591 0 4.932 3.22 6.53 6.44 4.795 9.681-.845 1.53 15.709 1.416 14.91-.205-1.576-3.151.068-6.325 4.886-9.476z" fill="#9D6C3E"/><path d="M45.362 38.246H34.539c-6.12 0-11.212-4.727-11.668-10.846L20.976 1.85A1.716 1.716 0 0 1 22.688 0h34.524c1.005 0 1.804.845 1.713 1.85L57.03 27.4c-.457 6.12-5.549 10.846-11.668 10.846zM56.504 41.968H23.42a2.577 2.577 0 0 0-2.58 2.58v3.767c0 .89.73 1.644 1.644 1.644h34.98c.89 0 1.644-.73 1.644-1.644v-3.767a2.577 2.577 0 0 0-2.58-2.58h-.023z" fill="#E2B664"/></svg>