<svg width="48" height="48" viewBox="0 0 48 48" fill="none" xmlns="http://www.w3.org/2000/svg">
<g clip-path="url(#clip0_119_7678)">
<path d="M35.4873 16.3793L28.9093 17.6213L35.5333 4.60333V2.62533L34.3987 1L25.628 4.28133L11 25.7173L12.1193 27.3427H18.4213L14.2813 45.3747L15.416 47H17.164L36.6067 19.9827V18.0047L35.4873 16.3793Z" fill="#E3AA24"/>
<path d="M34.3987 1V2.978L27.5907 16.3793H35.4873V18.342L16.0293 45.3747H14.2813L18.222 25.7173H11L17.1027 1H34.3987Z" fill="#F7C631"/>
<path d="M22.04 17.7593H32.85L18.2067 33.6907L22.04 17.7593Z" fill="#FCE26A"/>
<path d="M18.4674 2.57935H30.6574L14.1281 20.55L18.4674 2.57935Z" fill="#FCE26A"/>
</g>
<defs>
<clipPath id="clip0_119_7678">
<rect width="48" height="48" fill="white"/>
</clipPath>
</defs>
</svg>
