<svg width="90" height="90" fill="none" xmlns="http://www.w3.org/2000/svg"><path d="M50.42 6.14H39.57V17.5h10.85V6.14z" fill="#5D9948"/><path d="M50.42 6H39.57v6a14.955 14.955 0 0 1 10.85 0V6z" fill="#305730"/><path d="M32 3a3 3 0 0 1 3-3h20a3 3 0 0 1 3 3v4a3 3 0 0 1-3 3H35a3 3 0 0 1-3-3V3z" fill="#81B64C"/><path d="M32 7.286V3a3 3 0 0 1 3-3h14L37.717.565a5.714 5.714 0 0 0-5.331 4.657L32 7.286z" fill="#B2E068"/><path d="M51 0h4a3 3 0 0 1 3 3v4a3 3 0 0 1-3 3h-4c.66-3.3.66-6.7 0-10z" fill="#5D9948"/><path d="M45 90c20.434 0 37-16.566 37-37S65.434 16 45 16 8 32.566 8 53s16.566 37 37 37z" fill="#204227"/><path d="M45 88c20.434 0 37-16.566 37-37S65.434 14 45 14 8 30.566 8 51s16.566 37 37 37z" fill="#5D9948"/><path fill-rule="evenodd" clip-rule="evenodd" d="M64.953 19.836A36.827 36.827 0 0 0 45 14C24.566 14 8 30.566 8 51a36.847 36.847 0 0 0 8.283 23.333c26.837-4.113 47.563-26.781 48.67-54.497z" fill="#81B64C"/><path d="M45 79c15.464 0 28-12.536 28-28S60.464 23 45 23 17 35.536 17 51s12.536 28 28 28z" fill="#45753C"/><path d="M81.213 54.193 82 51c0 20.434-16.566 37-37 37a45.325 45.325 0 0 0 36.213-33.807z" fill="#81B64C"/><path d="m45 14-1.03.153C25.06 16.953 10.344 32.029 8 51c0-20.434 16.566-37 37-37z" fill="#B2E068"/><path fill-rule="evenodd" clip-rule="evenodd" d="M63.618 30.086A27.895 27.895 0 0 0 45 23c-15.464 0-28 12.536-28 28 0 8.283 3.596 15.725 9.313 20.852 18.65-6.454 32.944-22.236 37.305-41.766z" fill="#5D9948"/><path d="M45 76c13.807 0 25-11.193 25-25S58.807 26 45 26 20 37.193 20 51s11.193 25 25 25z" fill="#DAD8D6"/><path fill-rule="evenodd" clip-rule="evenodd" d="M62.77 33.414A24.923 24.923 0 0 0 45 26c-13.807 0-25 11.193-25 25 0 7.962 3.722 15.054 9.52 19.633 16.03-6.651 28.4-20.344 33.25-37.219z" fill="#fff"/><path d="m39 52 5.019-22.756c.286-1.299 2.09-1.42 2.548-.171l8.55 23.33c1.927 5.26-1.795 10.88-7.39 11.16-4.748.238-8.727-3.547-8.727-8.3V52z" fill="#DAD8D6"/><path d="M39.903 47.56A12.538 12.538 0 0 0 39 52.231v.269a6 6 0 0 0 12 0v-.269c0-1.6-.306-3.186-.903-4.67l-3.92-9.766a1.268 1.268 0 0 0-2.353 0l-3.921 9.765z" fill="#4B4847"/><path d="M39.35 48.02c-.232.948-.35 1.922-.35 2.898V51a6 6 0 0 0 12 0v-.081c0-.977-.118-1.95-.35-2.9L45.97 28.957c-.25-1.015-1.693-1.015-1.942 0L39.35 48.02z" fill="#666564"/><path fill-rule="evenodd" clip-rule="evenodd" d="M45 28.196V46c0 3.764-.832 7.333-2.321 10.535A6.002 6.002 0 0 1 39 51v-.081c0-.977.118-1.95.35-2.9l4.679-19.062a.978.978 0 0 1 .971-.761z" fill="#8B8987"/></svg>