<svg width="48" height="48" viewBox="0 0 48 48" fill="none" xmlns="http://www.w3.org/2000/svg">
<path d="M43.9027 23.2107L39.2973 18.6053C38.564 17.872 37.8453 16.8747 38.5053 16.2147C38.6373 16.0827 38.8133 15.98 39.0333 15.8773C39.8107 15.5693 40.4267 15.496 41.028 15.4373C42.0693 15.32 43.052 15.2027 44.3573 13.8827C46.4107 11.8293 45.208 8.42667 43.0373 6.256L42.8467 6.06533C40.676 3.89467 37.2733 2.692 35.22 4.74533C33.9 6.06533 33.7973 7.03333 33.6653 8.07467C33.592 8.676 33.5187 9.30667 33.2253 10.0693C33.1373 10.2893 33.02 10.48 32.888 10.612C32.2427 11.2573 31.2307 10.4947 30.688 9.996L25.4667 4.77467L24.264 3.572C23.956 3.264 23.4427 3.264 23.1347 3.572L17.18 9.52667C16.564 10.2013 16.3 10.832 16.4173 11.404C16.52 11.9173 16.9013 12.3427 17.5467 12.6507C18.456 13.0613 19.2773 13.032 20.0693 13.0027C21.14 12.9733 22.1667 12.9293 23.296 14.0587C25.0707 15.8333 23.6333 19.3387 21.976 21.084C21.1547 21.8613 19.9373 22.58 18.7053 22.976C17.2827 23.416 15.8307 23.416 14.8773 22.4627C13.748 21.3333 13.792 20.3213 13.8213 19.236C13.8507 18.444 13.88 17.608 13.4547 16.6987C13.1173 16.024 12.6773 15.6427 12.164 15.5547C11.5627 15.452 10.9027 15.7747 10.184 16.4933L9.37732 17.3C8.33599 18.3413 7.64665 19.5 7.13332 20.6587C5.22665 24.956 6.32665 29.444 6.34132 29.5027L6.42932 29.8547L6.72265 29.6347C7.17732 29.2973 8.48265 28.476 9.18665 28.7987C9.47999 28.9307 9.64132 29.268 9.69999 29.8107C9.75865 30.4267 9.62665 30.9107 9.27465 31.248C8.49732 32.0253 6.94265 31.908 6.92799 31.908L6.60532 31.8787L6.66399 32.2013C7.66132 37.1 6.15065 39.8573 4.69865 41.3093C3.93599 42.072 3.26132 42.38 3.26132 42.3947L2.67465 42.6587L3.29065 42.8493C8.17465 44.3013 11.2253 42.5707 12.9267 40.8693C13.836 39.96 14.3933 39.036 14.672 38.508C15.4053 40.4 13.8213 42.4093 12.736 43.48C12.296 43.92 11.9587 44.184 11.9587 44.184L11.5627 44.492L12.0467 44.6093C12.2373 44.6533 16.8867 45.724 19.0867 43.524C19.8493 42.7613 20.216 41.72 20.2013 40.4C20.2013 39.74 20.3187 39.2707 20.568 39.036C20.7293 38.8747 20.9493 38.8013 21.228 38.8013C22.3133 38.8453 23.1493 39.9307 23.2667 40.6933C23.4427 41.544 22.9 42.248 22.548 42.6C22.4453 42.7027 22.372 42.7613 22.3573 42.776L21.8733 43.1573L22.4893 43.216C22.4893 43.216 25.5987 43.4653 28.796 41.8667C29.808 41.368 30.82 40.6787 31.7733 39.74L32.58 38.9333C33.2987 38.2147 33.6067 37.5547 33.5187 36.9533C33.4307 36.4253 33.0493 36 32.3747 35.6627C31.4653 35.252 30.644 35.2813 29.852 35.3107C28.7813 35.34 27.7547 35.384 26.6253 34.2547C25.6427 33.272 25.672 31.7613 26.156 30.2947C26.552 29.1067 27.2413 27.9627 27.9893 27.1707C29.7493 25.4987 33.2547 24.076 35.0293 25.836C36.1587 26.9653 36.1147 27.9773 36.0853 29.0627C36.056 29.8547 36.0267 30.6907 36.452 31.6C36.76 32.2307 37.1853 32.6267 37.6987 32.7293C38.2707 32.8467 38.9013 32.5827 39.5907 31.952L45.3547 26.188C45.7653 25.7773 45.7653 25.1027 45.3547 24.692L43.9173 23.2547L43.9027 23.2107Z" fill="#F42B00"/>
<path d="M43.9027 23.2107L39.2973 18.6053C38.564 17.872 37.8453 16.8747 38.5053 16.2147C38.6373 16.0827 38.8133 15.98 39.0333 15.8773C39.8107 15.5693 40.4267 15.496 41.028 15.4373C42.0693 15.32 43.052 15.2027 44.3573 13.8827C46.4107 11.8293 45.208 8.42667 43.0373 6.256L42.8467 6.06533C40.676 3.89467 37.2733 2.692 35.22 4.74533C33.9 6.06533 33.7973 7.03333 33.6653 8.07467C33.592 8.676 33.5187 9.30667 33.2253 10.0693C33.1373 10.2893 33.02 10.48 32.888 10.612C32.2427 11.2573 31.2307 10.4947 30.688 9.996L25.4667 4.77467L24.264 3.572C23.956 3.264 23.4427 3.264 23.1347 3.572L17.18 9.52667C16.564 10.2013 16.3 10.832 16.4173 11.404C16.52 11.9173 16.9013 12.3427 17.5467 12.6507C18.456 13.0613 19.2773 13.032 20.0693 13.0027C21.14 12.9733 22.1667 12.9293 23.296 14.0587C25.0707 15.8333 23.6333 19.3387 21.976 21.084C21.1547 21.8613 19.9373 22.58 18.7053 22.976C17.2827 23.416 15.8307 23.416 14.8773 22.4627C13.748 21.3333 13.792 20.3213 13.8213 19.236C13.8507 18.444 13.88 17.608 13.4547 16.6987C13.1173 16.024 12.6773 15.6427 12.164 15.5547C11.5627 15.452 10.9027 15.7747 10.184 16.4933L9.37732 17.3C8.33599 18.3413 7.64665 19.5 7.13332 20.6587C5.22665 24.956 6.32665 29.444 6.34132 29.5027L6.42932 29.8547L6.72265 29.6347C7.17732 29.2973 8.48265 28.476 9.18665 28.7987C9.47999 28.9307 9.64132 29.268 9.69999 29.8107C9.75865 30.4267 9.62665 30.9107 9.27465 31.248C8.49732 32.0253 6.94265 31.908 6.92799 31.908L6.60532 31.8787L6.66399 32.2013C7.66132 37.1 6.15065 39.8573 4.69865 41.3093C3.93599 42.072 3.26132 42.38 3.26132 42.3947L2.67465 42.6587L3.29065 42.8493C8.17465 44.3013 11.2253 42.5707 12.9267 40.8693C13.836 39.96 14.3933 39.036 14.672 38.508C15.4053 40.4 13.8213 42.4093 12.736 43.48C12.296 43.92 11.9587 44.184 11.9587 44.184L11.5627 44.492L12.0467 44.6093C12.2373 44.6533 16.8867 45.724 19.0867 43.524C19.8493 42.7613 20.216 41.72 20.2013 40.4C20.2013 39.74 20.3187 39.2707 20.568 39.036C20.7293 38.8747 20.9493 38.8013 21.228 38.8013C22.3133 38.8453 23.1493 39.9307 23.2667 40.6933C23.4427 41.544 22.9 42.248 22.548 42.6C22.4453 42.7027 22.372 42.7613 22.3573 42.776L21.8733 43.1573L22.4893 43.216C22.4893 43.216 25.5987 43.4653 28.796 41.8667C29.808 41.368 30.82 40.6787 31.7733 39.74L32.58 38.9333C33.2987 38.2147 33.6067 37.5547 33.5187 36.9533C33.4307 36.4253 33.0493 36 32.3747 35.6627C31.4653 35.252 30.644 35.2813 29.852 35.3107C28.7813 35.34 27.7547 35.384 26.6253 34.2547C25.6427 33.272 25.672 31.7613 26.156 30.2947C26.552 29.1067 27.2413 27.9627 27.9893 27.1707C29.7493 25.4987 33.2547 24.076 35.0293 25.836C36.1587 26.9653 36.1147 27.9773 36.0853 29.0627C36.056 29.8547 36.0267 30.6907 36.452 31.6C36.76 32.2307 37.1853 32.6267 37.6987 32.7293C38.2707 32.8467 38.9013 32.5827 39.5907 31.952L45.3547 26.188C45.7653 25.7773 45.7653 25.1027 45.3547 24.692L43.9173 23.2547L43.9027 23.2107Z" fill="url(#paint0_linear_119_7640)"/>
<path d="M23.7067 4.232L29.8813 10.4067L30.0867 10.612C30.8787 11.36 31.5973 11.7267 32.2867 11.7267C32.756 11.7267 33.1813 11.5507 33.504 11.228C33.724 11.008 33.9 10.7293 34.032 10.392C34.3693 9.512 34.4573 8.808 34.5307 8.17733C34.648 7.18 34.736 6.46133 35.836 5.36133C36.364 4.83333 37.0533 4.55467 37.8747 4.55467C38.168 4.55467 38.476 4.584 38.7987 4.65733C39.9867 4.92133 41.204 5.64 42.2453 6.68133L42.436 6.872C43.4773 7.91333 44.196 9.13067 44.46 10.3187C44.6507 11.1547 44.68 12.3573 43.7707 13.2813C42.6707 14.3813 41.952 14.4693 40.9547 14.5867C40.324 14.66 39.62 14.748 38.7253 15.0853C38.4027 15.2173 38.124 15.3933 37.9187 15.6133C37.464 16.068 37.3027 16.6693 37.464 17.3147C37.6107 17.9013 38.0213 18.5613 38.7107 19.236L44.8853 25.4107L39.18 31.116L39.004 31.292C38.608 31.6587 38.256 31.8493 37.9773 31.8493C37.948 31.8493 37.904 31.8493 37.8747 31.8493C37.5813 31.7907 37.376 31.468 37.244 31.2187C36.9213 30.5 36.936 29.8107 36.9653 29.0773C37.0093 27.9187 37.0387 26.6133 35.66 25.22C34.956 24.516 33.988 24.1493 32.8733 24.1493C30.8493 24.1493 28.664 25.3373 27.3733 26.5693C25.4813 28.564 23.7507 32.5827 26.024 34.856C27.1973 36.0293 28.3413 36.176 29.3093 36.176C29.5 36.176 29.6907 36.176 29.896 36.176C30.072 36.176 30.248 36.176 30.4387 36.176C30.908 36.176 31.4653 36.2053 32.008 36.4547C32.404 36.6453 32.6387 36.88 32.6827 37.1147C32.7267 37.408 32.4773 37.8627 31.9933 38.3467L31.1867 39.1533C28.664 41.676 25.5987 42.2627 23.868 42.3653C24.1907 41.7787 24.2787 41.1627 24.1613 40.576C23.9707 39.3587 22.7827 38.024 21.272 37.9653C20.744 37.9653 20.3187 38.1267 19.9813 38.4493C19.5707 38.86 19.3653 39.5053 19.3653 40.444C19.38 41.5293 19.1013 42.3507 18.5147 42.952C17.576 43.8907 15.992 44.0813 14.8333 44.0813C14.3493 44.0813 13.8947 44.052 13.5133 44.008C14.7013 42.7907 15.992 40.972 15.728 39.036L15.288 35.9413L13.6747 38.6107C13.308 39.2267 12.8533 39.7987 12.3547 40.2973C10.844 41.808 8.98133 42.5707 6.81066 42.5707C6.20933 42.5707 5.56399 42.512 4.91866 42.3947C5.06533 42.2773 5.21199 42.1307 5.35866 41.984C6.88399 40.4587 8.48266 37.6573 7.70533 32.832C8.39466 32.7733 9.30399 32.568 9.93466 31.9373C10.4773 31.3947 10.6973 30.676 10.6093 29.796C10.5213 28.7107 10.008 28.256 9.59733 28.08C9.37733 27.9773 9.14266 27.9333 8.87866 27.9333C8.24799 27.9333 7.57333 28.2267 7.05999 28.5053C6.73733 26.54 6.39999 21.6413 10.052 17.9893L10.8587 17.1827C11.2987 16.7427 11.724 16.4933 12.0173 16.4933C12.0467 16.4933 12.076 16.4933 12.0907 16.4933C12.3107 16.5227 12.5453 16.772 12.736 17.1387C13.0587 17.8573 13.044 18.5467 13.0147 19.28C12.9707 20.4387 12.9413 21.744 14.32 23.1373C15.024 23.8413 15.9773 24.208 17.092 24.208C19.1453 24.208 21.3453 22.9907 22.6507 21.744C24.6013 19.6907 26.1267 15.672 23.956 13.5013C22.7827 12.328 21.6387 12.1813 20.6707 12.1813C20.48 12.1813 20.2893 12.1813 20.084 12.1813C19.908 12.1813 19.732 12.1813 19.5413 12.1813C19.072 12.1813 18.5147 12.152 17.9573 11.888C17.6933 11.756 17.3707 11.5507 17.312 11.2573C17.2387 10.876 17.6347 10.3773 17.8547 10.1427L18.0453 9.952L23.7507 4.24667M17.2533 9.17467L17.0627 9.36533C16.3733 10.1133 16.0947 10.8173 16.2267 11.4627C16.3 11.8733 16.5933 12.46 17.488 12.8853C18.2213 13.2227 18.9107 13.2813 19.5413 13.2813C19.7467 13.2813 19.9373 13.2813 20.128 13.2813C20.3187 13.2813 20.4947 13.2813 20.6707 13.2813C21.5213 13.2813 22.2987 13.4133 23.164 14.2787C24.8213 15.936 23.428 19.28 21.844 20.9667C20.6707 22.0667 18.7347 23.0787 17.092 23.0787C16.3293 23.0787 15.64 22.8587 15.112 22.3307C14.056 21.2747 14.0853 20.3507 14.1293 19.2947C14.1587 18.5027 14.188 17.6227 13.748 16.6547C13.2787 15.716 12.6773 15.4373 12.2667 15.364C12.1787 15.364 12.0907 15.3493 12.0173 15.3493C11.416 15.3493 10.756 15.6867 10.0813 16.376L9.27466 17.1827C4.25866 22.1987 6.09199 29.312 6.16533 29.62L6.35599 30.324L6.92799 29.884C7.45599 29.488 8.32133 29.0187 8.87866 29.0187C8.98133 29.0187 9.06933 29.0333 9.14266 29.0627C9.34799 29.1507 9.46533 29.4147 9.50933 29.8693C9.56799 30.4267 9.45066 30.8373 9.15733 31.1307C8.62933 31.6587 7.66133 31.7173 7.22133 31.7173C7.08933 31.7173 7.00133 31.7173 7.00133 31.7173L6.35599 31.6587L6.48799 32.2893C7.47066 37.0853 5.98933 39.7693 4.58133 41.1773C3.84799 41.9107 3.21733 42.204 3.20266 42.204L2.02933 42.7467L3.26133 43.1133C4.56666 43.4947 5.75466 43.6707 6.81066 43.6707C9.80266 43.6707 11.856 42.3653 13.1467 41.0747C13.8213 40.4 14.3053 39.7107 14.628 39.1827C14.848 40.7813 13.528 42.424 12.604 43.348C12.1787 43.7733 11.856 44.0373 11.8413 44.0373L11.0493 44.6533L12.032 44.888C12.1347 44.9173 13.352 45.196 14.8333 45.196C16.3147 45.196 18.1333 44.9027 19.292 43.744C20.0987 42.9373 20.4947 41.8227 20.4653 40.444C20.4653 39.8573 20.568 39.4467 20.7587 39.256C20.832 39.1827 20.964 39.0947 21.2573 39.0947C22.1813 39.1387 22.944 40.1067 23.0467 40.7667V40.796C23.208 41.5293 22.7093 42.16 22.4013 42.4827C22.3133 42.5707 22.24 42.6293 22.24 42.6293L21.2867 43.3773L22.504 43.4947C22.504 43.4947 22.768 43.524 23.1347 43.524C24.6747 43.524 28.7373 43.1867 31.9787 39.96L32.7853 39.1533C33.5627 38.376 33.9 37.6427 33.7827 36.9533C33.7093 36.5427 33.4453 35.9413 32.5067 35.4867C31.7733 35.1493 31.0693 35.0907 30.4387 35.0907C30.2333 35.0907 30.0427 35.0907 29.852 35.0907C29.6613 35.0907 29.4853 35.0907 29.3093 35.0907C28.4587 35.0907 27.6813 34.9587 26.816 34.0933C25.1587 32.436 26.5667 29.0627 28.1947 27.3613C29.3387 26.276 31.26 25.2933 32.888 25.2933C33.6507 25.2933 34.3547 25.5133 34.8827 26.0413C35.9387 27.0973 35.9093 28.0213 35.8653 29.0773C35.836 29.8693 35.8067 30.7493 36.2467 31.7173C36.6867 32.6267 37.2587 32.9053 37.6693 32.9787C37.772 32.9933 37.8747 33.008 37.9773 33.008C38.5493 33.008 39.136 32.7147 39.752 32.1573L39.9573 31.952L45.7067 26.2027C46.1173 25.792 46.1173 25.1173 45.7067 24.7067L39.488 18.488C38.8133 17.8133 38.608 17.3587 38.5347 17.08C38.4613 16.8013 38.52 16.6107 38.696 16.4347C38.7987 16.332 38.96 16.2293 39.1507 16.156C39.884 15.8627 40.5 15.804 41.0867 15.7307C42.172 15.5987 43.184 15.4813 44.5627 14.1173C45.56 13.12 45.912 11.712 45.56 10.128C45.252 8.73467 44.4307 7.32667 43.2427 6.13867L43.052 5.948C41.864 4.76 40.456 3.93867 39.0627 3.63067C38.6667 3.54267 38.2707 3.49867 37.904 3.49867C36.804 3.49867 35.8213 3.88 35.088 4.628C33.7093 6.00667 33.592 7.01867 33.4747 8.104C33.4013 8.69067 33.3427 9.30667 33.0493 10.04C32.976 10.2307 32.8733 10.392 32.7707 10.4947C32.6387 10.6267 32.492 10.6707 32.3307 10.6707C31.8467 10.6707 31.26 10.2013 30.8933 9.864L30.7173 9.688L24.2787 3.23467C23.9707 2.92667 23.4573 2.92667 23.1493 3.23467L17.224 9.16L17.2533 9.17467Z" fill="url(#paint1_linear_119_7640)"/>
<defs>
<linearGradient id="paint0_linear_119_7640" x1="6.29732" y1="42.8053" x2="34.604" y2="14.4987" gradientUnits="userSpaceOnUse">
<stop offset="0.12" stop-color="#FA412D"/>
<stop offset="0.57" stop-color="#FA742C"/>
<stop offset="1" stop-color="#F7C631"/>
</linearGradient>
<linearGradient id="paint1_linear_119_7640" x1="5.91599" y1="43.1867" x2="42.5093" y2="6.59333" gradientUnits="userSpaceOnUse">
<stop offset="0.25" stop-color="#FA412D"/>
<stop offset="0.26" stop-color="#FA482C"/>
<stop offset="0.28" stop-color="#FA5B2C"/>
<stop offset="0.3" stop-color="#FA692C"/>
<stop offset="0.34" stop-color="#FA712C"/>
<stop offset="0.4" stop-color="#FA742C"/>
<stop offset="0.43" stop-color="#F9812C"/>
<stop offset="0.49" stop-color="#F89A2E"/>
<stop offset="0.57" stop-color="#F7AD2F"/>
<stop offset="0.66" stop-color="#F7BB30"/>
<stop offset="0.77" stop-color="#F7C330"/>
<stop offset="0.97" stop-color="#F7C631"/>
</linearGradient>
</defs>
</svg>
