<svg width="48" height="48" viewBox="0 0 48 48" fill="none" xmlns="http://www.w3.org/2000/svg">
<g clip-path="url(#clip0_119_7673)">
<path d="M8.49733 20.48L2 27.652L8.70267 22.8707C8.54133 22.0347 8.468 21.228 8.48267 20.48H8.49733Z" fill="#F7C631"/>
<path d="M14.584 33.5773C14.1587 33.152 13.7627 32.712 13.3667 32.2427L2.04401 46L15.6987 34.6333C15.3173 34.296 14.936 33.944 14.5693 33.5773H14.584Z" fill="#F7C631"/>
<path d="M40.3093 27.256L20.876 7.72L11.7387 16.9013C8.68799 19.9667 11.24 27.4907 15.948 32.2133C17.8253 34.1053 20.1573 35.6453 22.46 36.628L30.556 30.2627L27.6373 33.9147C27.6373 33.9147 27.5347 34.0173 27.4907 34.076L25.5693 36.496L24.8213 37.4347L18.0307 46L28.3707 37.7133C29.4853 37.5667 30.4387 37.156 31.1573 36.4373L40.2947 27.256H40.3093Z" fill="#F7C631"/>
<path d="M20.876 7.72L17.6054 11.0053C16.96 15.0387 19.6294 21.0813 23.3254 24.792C26.8014 28.2827 32.536 31.0693 36.7014 30.8787L40.324 27.2413L20.876 7.72Z" fill="#CF8D1B"/>
<path d="M25.0853 23.032C29.7787 27.7547 37.2587 30.3213 40.3093 27.256C46.2787 21.2427 47.54 7.29466 44.1373 3.87733C40.7347 0.459994 26.86 1.72133 20.876 7.73466C17.8253 10.8 20.3773 18.324 25.0853 23.0467V23.032Z" fill="#F7C631"/>
<path d="M13.132 19.1453C13.132 19.1453 15.4054 18.1627 18.324 16.6813C18.016 15.7867 17.796 14.892 17.6494 14.0267C14.892 16.8133 13.132 19.1307 13.132 19.1307V19.1453Z" fill="#FCE26A"/>
<path d="M19.2333 34.8973C20.2747 35.5867 21.3747 36.1733 22.46 36.628L30.1013 30.6293C30.3947 30.336 30.688 30.0427 30.9667 29.7493C29.72 29.2507 28.4733 28.6347 27.2853 27.9013C24.9973 29.852 22.328 32.184 19.248 34.8973H19.2333Z" fill="#FCE26A"/>
<path d="M32.316 4.84532C29.0013 5.35866 25.6573 7.27999 22.6947 9.55332C21.5947 10.404 20.5533 11.2987 19.5853 12.1787C19.6733 13.264 19.9373 14.4373 20.3627 15.6253C22.1227 14.6867 23.9853 13.616 25.6427 12.5013C26.3907 12.0027 27.0947 11.4893 27.74 10.9907C32.932 6.89866 40.016 4.34666 40.016 4.34666C40.016 4.34666 36.8187 4.14132 32.316 4.84532Z" fill="#FCE26A"/>
<path d="M34.7213 21.6387C33.372 22.7387 31.5533 24.264 29.2213 26.244C30.336 26.904 31.4946 27.4467 32.624 27.8427C34.1346 26.0094 35.22 24.308 35.9826 22.9147C37.1853 20.744 37.596 19.3214 37.596 19.3214C37.596 19.3214 36.6573 20.0547 34.7213 21.6387Z" fill="#FCE26A"/>
</g>
<defs>
<clipPath id="clip0_119_7673">
<rect width="48" height="48" fill="white"/>
</clipPath>
</defs>
</svg>
