<svg width="48" height="48" viewBox="0 0 48 48" fill="none" xmlns="http://www.w3.org/2000/svg">
<g clip-path="url(#clip0_119_7660)">
<path fill-rule="evenodd" clip-rule="evenodd" d="M40.801 11.9549C40.801 15.8005 37.6858 18.9128 33.8431 18.9128C30.0005 18.9128 26.8853 15.8005 26.8853 11.9549C26.8853 8.11227 30.0005 5 33.8431 5C37.6858 5 40.801 8.11227 40.801 11.9549Z" fill="#463A33"/>
<path fill-rule="evenodd" clip-rule="evenodd" d="M26.8838 22.461H40.7995V11.8863H26.8838V22.461Z" fill="#463A33"/>
<path fill-rule="evenodd" clip-rule="evenodd" d="M40.7998 22.4621C40.7998 26.3048 37.6846 29.4171 33.8419 29.4171C29.9992 29.4171 26.884 26.3048 26.884 22.4621C26.884 18.6165 29.9992 15.5043 33.8419 15.5043C37.6846 15.5043 40.7998 18.6165 40.7998 22.4621Z" fill="#463A33"/>
<path fill-rule="evenodd" clip-rule="evenodd" d="M27.876 11.9004C27.876 11.8974 27.879 11.8974 27.876 11.9004V11.9004Z" fill="#F5CD9D"/>
<path fill-rule="evenodd" clip-rule="evenodd" d="M24.4056 27.733L29.8822 24.4917V19.4141H37.7083V24.4917L43.6072 27.733L33.98 34.3741L24.4056 27.733Z" fill="#95704D"/>
<path fill-rule="evenodd" clip-rule="evenodd" d="M40.2653 14.851C40.2506 14.499 40.0482 14.191 39.7578 14.0297V13.9036V12.915C39.7578 12.3665 39.3149 11.9236 38.7693 11.9236H38.4965C38.4994 11.9294 38.4994 11.9324 38.4965 11.9236H33.8208H29.145C29.1421 11.9294 29.1421 11.9324 29.145 11.9236H28.8752C28.3266 11.9236 27.8837 12.3665 27.8837 12.915V13.9036V14.0297C27.5933 14.191 27.3938 14.499 27.3762 14.851C27.3762 14.8657 27.3762 14.8804 27.3762 14.895V16.8721C27.3762 17.4118 27.8104 17.8518 28.3501 17.8606C28.8986 21.3513 31.1397 23.9649 33.8208 23.9649C36.5048 23.9649 38.7429 21.3513 39.2914 17.8606C39.8341 17.8518 40.2653 17.4118 40.2653 16.8721V14.895C40.2653 14.8804 40.2653 14.8657 40.2653 14.851Z" fill="#A88865"/>
<path fill-rule="evenodd" clip-rule="evenodd" d="M37.6514 11.9233C37.6485 11.9203 37.6514 11.9203 37.6514 11.9233V11.9233Z" fill="#F5CD9D"/>
<path fill-rule="evenodd" clip-rule="evenodd" d="M36.1268 12.5052H38.7961V10.5047H36.1268V12.5052Z" fill="#A88865"/>
<path fill-rule="evenodd" clip-rule="evenodd" d="M33.6295 6.75296C31.5146 6.75296 30.1652 7.56549 29.8132 7.80603C27.6514 9.25216 27.8332 12.2794 27.8332 13.526C27.8332 15.0308 29.0535 16.2482 30.5583 16.2482C30.0508 16.2482 29.6431 15.8404 29.6431 15.3359C29.6431 14.8255 30.0508 14.4148 30.5583 14.4148H33.1308H33.6295C35.7474 14.4148 37.4634 12.7018 37.4634 10.5868C37.4634 8.46896 35.7474 6.75296 33.6295 6.75296Z" fill="#463A33"/>
<path fill-rule="evenodd" clip-rule="evenodd" d="M39.287 10.5857C39.287 9.84644 38.6886 9.25098 37.9523 9.25098C37.2131 9.25098 36.6147 9.84644 36.6147 10.5857C36.6147 11.3219 37.2131 11.9203 37.9523 11.9203C38.6886 11.9203 39.287 11.3219 39.287 10.5857Z" fill="#463A33"/>
<path fill-rule="evenodd" clip-rule="evenodd" d="M37.9512 11.9215H39.4208V10.0412H37.9512V11.9215Z" fill="#463A33"/>
<path fill-rule="evenodd" clip-rule="evenodd" d="M11.5981 36.6026H19.48V28.2778H11.5981V36.6026Z" fill="#D3AA84"/>
<path fill-rule="evenodd" clip-rule="evenodd" d="M21.4982 22.8317C21.4982 27.3931 18.8318 31.0949 15.5377 31.0949C12.2494 31.0949 9.58301 27.3931 9.58301 22.8317C9.58301 18.2704 12.2494 14.5715 15.5377 14.5715C18.8318 14.5715 21.4982 18.2704 21.4982 22.8317Z" fill="#E7C7A2"/>
<path fill-rule="evenodd" clip-rule="evenodd" d="M20.5009 21.4812H22.4868V17.5506H20.5009V21.4812Z" fill="#95704D"/>
<path fill-rule="evenodd" clip-rule="evenodd" d="M8.58862 21.4812H10.5745V17.5506H8.58862V21.4812Z" fill="#95704D"/>
<path fill-rule="evenodd" clip-rule="evenodd" d="M8.58887 17.5811C8.58887 14.2752 11.7011 11.5971 15.5379 11.5971C19.3777 11.5971 22.487 14.2752 22.487 17.5811H21.4105L15.6582 15.8827L9.7006 17.5811H8.58887Z" fill="#95704D"/>
<path fill-rule="evenodd" clip-rule="evenodd" d="M21.8332 15.7105C21.8332 16.8075 20.9473 17.6963 19.8473 17.6963C18.7561 17.6963 17.8585 16.8075 17.8585 15.7105C17.8585 14.6105 18.7561 13.7217 19.8473 13.7217C20.9473 13.7217 21.8332 14.6105 21.8332 15.7105Z" fill="#95704D"/>
<path fill-rule="evenodd" clip-rule="evenodd" d="M18.9946 15.0889C18.9946 16.9985 17.4487 18.5444 15.5391 18.5444C13.6266 18.5444 12.0778 16.9985 12.0778 15.0889C12.0778 13.1793 13.6266 11.6246 15.5391 11.6246C17.4487 11.6246 18.9946 13.1793 18.9946 15.0889Z" fill="#95704D"/>
<path fill-rule="evenodd" clip-rule="evenodd" d="M9.58301 15.7105H16.5321L15.5377 18.5441H9.58301V15.7105Z" fill="#95704D"/>
<path fill-rule="evenodd" clip-rule="evenodd" d="M19.8467 18.545H21.4982V16.5591H19.8467V18.545Z" fill="#95704D"/>
<path fill-rule="evenodd" clip-rule="evenodd" d="M21.4982 18.6866C21.4982 19.2352 21.0494 19.681 20.5038 19.681C19.9523 19.681 19.5123 19.2352 19.5123 18.6866C19.5123 18.1381 19.9523 17.6952 20.5038 17.6952C21.0494 17.6952 21.4982 18.1381 21.4982 18.6866Z" fill="#E7C7A2"/>
<path fill-rule="evenodd" clip-rule="evenodd" d="M11.5709 19.5376C11.5709 20.0861 11.1251 20.532 10.5765 20.532C10.028 20.532 9.58215 20.0861 9.58215 19.5376C9.58215 18.9891 10.028 18.5432 10.5765 18.5432C11.1251 18.5432 11.5709 18.9891 11.5709 19.5376Z" fill="#E7C7A2"/>
<path fill-rule="evenodd" clip-rule="evenodd" d="M22.4879 21.5226C22.4879 22.0711 22.045 22.5199 21.4994 22.5199C20.9509 22.5199 20.5021 22.0711 20.5021 21.5226C20.5021 20.9741 20.9509 20.5311 21.4994 20.5311C22.045 20.5311 22.4879 20.9741 22.4879 21.5226Z" fill="#E7C7A2"/>
<path fill-rule="evenodd" clip-rule="evenodd" d="M22.4879 23.5105C22.4879 24.0561 22.045 24.499 21.4994 24.499C20.9509 24.499 20.5021 24.0561 20.5021 23.5105C20.5021 22.959 20.9509 22.519 21.4994 22.519C22.045 22.519 22.4879 22.959 22.4879 23.5105Z" fill="#E7C7A2"/>
<path fill-rule="evenodd" clip-rule="evenodd" d="M20.5038 23.5111H22.4896V21.5223H20.5038V23.5111Z" fill="#E7C7A2"/>
<path fill-rule="evenodd" clip-rule="evenodd" d="M8.58862 23.5111H10.5745V21.5223H8.58862V23.5111Z" fill="#E7C7A2"/>
<path fill-rule="evenodd" clip-rule="evenodd" d="M10.5753 21.5226C10.5753 22.0711 10.1295 22.5199 9.58388 22.5199C9.03534 22.5199 8.58948 22.0711 8.58948 21.5226C8.58948 20.9741 9.03534 20.5311 9.58388 20.5311C10.1295 20.5311 10.5753 20.9741 10.5753 21.5226Z" fill="#E7C7A2"/>
<path fill-rule="evenodd" clip-rule="evenodd" d="M10.5753 23.5105C10.5753 24.0561 10.1295 24.499 9.58388 24.499C9.03534 24.499 8.58948 24.0561 8.58948 23.5105C8.58948 22.959 9.03534 22.519 9.58388 22.519C10.1295 22.519 10.5753 22.959 10.5753 23.5105Z" fill="#E7C7A2"/>
<path fill-rule="evenodd" clip-rule="evenodd" d="M21.4982 21.5226H9.58301V19.5367L21.4982 18.686V21.5226Z" fill="#E7C7A2"/>
<path fill-rule="evenodd" clip-rule="evenodd" d="M17.9019 19.3135H20.5038V17.6943H17.9019V19.3135Z" fill="#E7C7A2"/>
<path fill-rule="evenodd" clip-rule="evenodd" d="M43.6185 27.6928L39.4062 25.3814C38.3238 27.1883 33.8211 30.2507 33.8211 30.2507C33.8211 30.2507 29.4035 27.244 28.2683 25.4312L24.4491 27.6928C23.047 28.3206 22.0673 29.7286 22.0673 31.3654C22.0673 33.5888 27.4089 36.264 34.0294 36.264C40.6499 36.264 46.0003 33.5888 46.0003 31.3654C46.0003 29.7286 45.0235 28.3206 43.6185 27.6928Z" fill="#96BC4B"/>
<path fill-rule="evenodd" clip-rule="evenodd" d="M27.4249 33.1013L22.1273 30.7048C22.0863 30.9365 22.0217 31.1624 22.0217 31.4059C22.0217 33.1512 25.3217 35.1664 29.9359 35.9584C29.5516 34.6795 28.6276 33.6381 27.4249 33.1013Z" fill="#4E7838"/>
<path fill-rule="evenodd" clip-rule="evenodd" d="M21.4982 22.8317C21.4982 27.3931 18.8318 31.0949 15.5377 31.0949C12.2494 31.0949 9.58301 27.3931 9.58301 22.8317C9.58301 18.2704 12.2494 14.5715 15.5377 14.5715C18.8318 14.5715 21.4982 18.2704 21.4982 22.8317Z" fill="#E7C7A2"/>
<path fill-rule="evenodd" clip-rule="evenodd" d="M20.5009 21.4812H22.4868V17.5506H20.5009V21.4812Z" fill="#95704D"/>
<path fill-rule="evenodd" clip-rule="evenodd" d="M8.58862 21.4812H10.5745V17.5506H8.58862V21.4812Z" fill="#95704D"/>
<path fill-rule="evenodd" clip-rule="evenodd" d="M8.58887 17.5811C8.58887 14.2752 11.7011 11.5971 15.5379 11.5971C19.3777 11.5971 22.487 14.2752 22.487 17.5811H21.4105L15.6582 15.8827L9.7006 17.5811H8.58887Z" fill="#95704D"/>
<path fill-rule="evenodd" clip-rule="evenodd" d="M21.8332 15.7105C21.8332 16.8075 20.9473 17.6963 19.8473 17.6963C18.7561 17.6963 17.8585 16.8075 17.8585 15.7105C17.8585 14.6105 18.7561 13.7217 19.8473 13.7217C20.9473 13.7217 21.8332 14.6105 21.8332 15.7105Z" fill="#95704D"/>
<path fill-rule="evenodd" clip-rule="evenodd" d="M18.9946 15.0889C18.9946 16.9985 17.4487 18.5444 15.5391 18.5444C13.6266 18.5444 12.0778 16.9985 12.0778 15.0889C12.0778 13.1793 13.6266 11.6246 15.5391 11.6246C17.4487 11.6246 18.9946 13.1793 18.9946 15.0889Z" fill="#95704D"/>
<path fill-rule="evenodd" clip-rule="evenodd" d="M9.58301 15.7105H16.5321L15.5377 18.5441H9.58301V15.7105Z" fill="#95704D"/>
<path fill-rule="evenodd" clip-rule="evenodd" d="M19.8467 18.545H21.4982V16.5591H19.8467V18.545Z" fill="#95704D"/>
<path fill-rule="evenodd" clip-rule="evenodd" d="M21.4982 18.6866C21.4982 19.2352 21.0494 19.681 20.5038 19.681C19.9523 19.681 19.5123 19.2352 19.5123 18.6866C19.5123 18.1381 19.9523 17.6952 20.5038 17.6952C21.0494 17.6952 21.4982 18.1381 21.4982 18.6866Z" fill="#E7C7A2"/>
<path fill-rule="evenodd" clip-rule="evenodd" d="M11.5709 19.5376C11.5709 20.0861 11.1251 20.532 10.5765 20.532C10.028 20.532 9.58215 20.0861 9.58215 19.5376C9.58215 18.9891 10.028 18.5432 10.5765 18.5432C11.1251 18.5432 11.5709 18.9891 11.5709 19.5376Z" fill="#E7C7A2"/>
<path fill-rule="evenodd" clip-rule="evenodd" d="M22.4879 21.5226C22.4879 22.0711 22.045 22.5199 21.4994 22.5199C20.9509 22.5199 20.5021 22.0711 20.5021 21.5226C20.5021 20.9741 20.9509 20.5311 21.4994 20.5311C22.045 20.5311 22.4879 20.9741 22.4879 21.5226Z" fill="#E7C7A2"/>
<path fill-rule="evenodd" clip-rule="evenodd" d="M22.4879 23.5105C22.4879 24.0561 22.045 24.499 21.4994 24.499C20.9509 24.499 20.5021 24.0561 20.5021 23.5105C20.5021 22.959 20.9509 22.519 21.4994 22.519C22.045 22.519 22.4879 22.959 22.4879 23.5105Z" fill="#E7C7A2"/>
<path fill-rule="evenodd" clip-rule="evenodd" d="M20.5038 23.5111H22.4896V21.5223H20.5038V23.5111Z" fill="#E7C7A2"/>
<path fill-rule="evenodd" clip-rule="evenodd" d="M8.58862 23.5111H10.5745V21.5223H8.58862V23.5111Z" fill="#E7C7A2"/>
<path fill-rule="evenodd" clip-rule="evenodd" d="M10.5753 21.5226C10.5753 22.0711 10.1295 22.5199 9.58388 22.5199C9.03534 22.5199 8.58948 22.0711 8.58948 21.5226C8.58948 20.9741 9.03534 20.5311 9.58388 20.5311C10.1295 20.5311 10.5753 20.9741 10.5753 21.5226Z" fill="#E7C7A2"/>
<path fill-rule="evenodd" clip-rule="evenodd" d="M10.5753 23.5105C10.5753 24.0561 10.1295 24.499 9.58388 24.499C9.03534 24.499 8.58948 24.0561 8.58948 23.5105C8.58948 22.959 9.03534 22.519 9.58388 22.519C10.1295 22.519 10.5753 22.959 10.5753 23.5105Z" fill="#E7C7A2"/>
<path fill-rule="evenodd" clip-rule="evenodd" d="M21.4982 21.5226H9.58301V19.5367L21.4982 18.686V21.5226Z" fill="#E7C7A2"/>
<path fill-rule="evenodd" clip-rule="evenodd" d="M17.9019 19.3135H20.5038V17.6943H17.9019V19.3135Z" fill="#E7C7A2"/>
<path fill-rule="evenodd" clip-rule="evenodd" d="M26.6957 33.717L19.5208 30.4728C19.5091 30.4669 19.4944 30.461 19.4827 30.4581C19.2304 32.4176 17.5643 33.9253 15.5373 33.9253C13.5163 33.9253 11.8443 32.4176 11.6008 30.4581C11.5832 30.461 11.5715 30.4669 11.5568 30.4728L4.3848 33.717C2.97973 34.3448 2 35.7528 2 37.3896C2 39.613 9.12507 42.2266 15.7485 42.2266C22.3661 42.2266 29.0776 39.613 29.0776 37.3896C29.0776 35.7528 28.1008 34.3448 26.6957 33.717Z" fill="#8B8987"/>
</g>
<defs>
<clipPath id="clip0_119_7660">
<rect width="48" height="48" fill="white"/>
</clipPath>
</defs>
</svg>
